<svg width="65" height="52" viewBox="0 0 65 52" fill="none" xmlns="http://www.w3.org/2000/svg">
<path d="M20.4561 0.0734253H7.33606V4.83424H20.4561V0.0734253Z" fill="white"/>
<path d="M23.9108 20.8604C19.3524 20.8604 15.6561 24.5633 15.6561 29.1151C15.6561 33.68 19.3459 37.3763 23.9108 37.3763C28.4691 37.3763 32.1655 33.68 32.1655 29.1151C32.1655 24.5633 28.4691 20.8604 23.9108 20.8604Z" fill="white"/>
<path d="M60.3515 6.29712H5.48134C2.96052 6.29712 0.916443 8.33467 0.916443 10.862V47.3747C0.916443 49.902 2.96052 51.9461 5.48134 51.9461H60.3515C62.8724 51.9461 64.9164 49.9086 64.9164 47.3747V10.862C64.9164 8.33467 62.8724 6.29712 60.3515 6.29712ZM24.0936 46.4343C14.5328 46.4343 6.78093 38.6824 6.78093 29.1216C6.78093 19.5608 14.5328 11.809 24.0936 11.809C33.6544 11.809 41.4062 19.5608 41.4062 29.1216C41.4062 38.6824 33.6609 46.4343 24.0936 46.4343ZM60.7303 43.0449H42.745V37.6245H60.7303V43.0449ZM57.9613 15.9951H52.4038C50.7515 15.9951 49.4062 14.6563 49.4062 13.0041C49.4062 11.3453 50.7515 10.0065 52.4038 10.0065H57.9613C59.6136 10.0065 60.9524 11.3453 60.9524 13.0041C60.9589 14.6498 59.6136 15.9951 57.9613 15.9951Z" fill="white"/>
</svg>
