<svg width="62" height="64" viewBox="0 0 62 64" fill="none" xmlns="http://www.w3.org/2000/svg">
<path d="M20.9295 24.7952C17.194 24.7952 14.1703 27.8188 14.1703 31.5544C14.1703 35.2833 17.2006 38.3135 20.9295 38.3135C24.665 38.3135 27.6887 35.2899 27.6887 31.5544C27.6887 27.8188 24.6585 24.8017 20.9295 24.7952Z" fill="white"/>
<path d="M55.3654 14.3723H51.3948L33.3442 0.514331C32.443 -0.177913 31.1826 -0.171383 30.2879 0.533923L12.8903 14.2809C12.8577 14.307 12.8316 14.3396 12.7989 14.3723H5.74584C2.58502 14.3723 0.0184937 16.9323 0.0184937 20.0996V58.2711C0.0184937 61.4319 2.57849 63.9984 5.74584 63.9984H55.372C58.5328 63.9984 61.0993 61.4319 61.0993 58.2711V20.0996C61.0928 16.9388 58.5262 14.3723 55.3654 14.3723ZM31.8487 5.63433L43.2381 14.3788H20.7924L31.8487 5.63433ZM56.3254 52.4262L44.3418 36.4588C44.3418 36.4588 43.643 35.1658 41.2005 35.1658C38.425 35.1658 37.5891 36.4196 37.5891 36.4196L27.0944 52.6156C27.0944 52.6156 26.5262 53.7062 25.1222 53.7062C23.6593 53.7062 22.954 52.6156 22.954 52.6156L17.4356 46.307C17.4356 46.307 16.0185 44.4327 14.1834 44.4327C12.3548 44.4327 10.8332 46.5094 10.8332 46.5094L4.77931 54.0588V21.1249C4.77931 20.0735 5.63482 19.218 6.68625 19.218H54.4054C55.4569 19.218 56.3124 20.0735 56.3124 21.1249L56.3254 52.4262Z" fill="white"/>
</svg>
