<svg width="40" height="40" viewBox="0 0 40 40" fill="none" xmlns="http://www.w3.org/2000/svg">
<path d="M10.2065 0.139011C9.73266 0.321461 9.24246 0.791489 8.99715 1.3219L8.7845 1.77412V4.67031V7.56649H9.60164H10.4106L10.4351 4.81844C10.4596 2.21808 10.4678 2.06995 10.6147 1.94831C10.7535 1.84406 12.1918 1.82668 20.1918 1.82668H29.6139L29.6384 5.40966C29.6629 8.94052 29.6629 9.01003 29.8506 9.43618C30.0959 10.0013 30.6025 10.5496 31.1253 10.8015C31.5339 11.0013 31.591 11.0013 34.9167 11.0278L38.2833 11.0539V24.4732C38.2833 37.362 38.2751 37.9015 38.1363 38.0318C37.9976 38.1713 36.9269 38.1795 24.3837 38.1795C16.9065 38.1795 10.7453 38.1448 10.6963 38.11C10.5004 37.9797 10.4184 37.6405 10.4184 37.014V36.3533H9.60123H8.78409V37.2925C8.78409 38.1274 8.80858 38.2838 8.99674 38.6839C9.11103 38.9363 9.35633 39.2751 9.54409 39.4406C10.2061 40.0497 9.23348 40.0145 24.5551 39.9884L38.4061 39.9624L38.7412 39.7708C39.1743 39.5271 39.5502 39.1274 39.7792 38.6661L39.9592 38.3094L39.9837 24.0461L40 9.78327L35.4074 4.8962L30.8069 0L20.6743 0.00868988C12.0123 0.00868988 10.4923 0.0347519 10.2065 0.139011Z" fill="white"/>
<path d="M2.45143 10.6017C1.24204 10.6799 0.686531 11.0279 0.187755 12.0279L0 12.3932V21.9597V31.5262L0.179592 31.8829C0.473878 32.4654 0.751429 32.7612 1.28286 33.0397L1.78122 33.3094H10.6555H19.5298L19.9465 33.1005C20.4612 32.8485 20.878 32.4137 21.1314 31.8655L21.3278 31.4393V22.6552C21.3278 14.193 21.3196 13.8537 21.1727 13.4362C21.0502 13.1143 20.7886 12.749 20.1102 12.0101C19.1625 10.9753 18.6473 10.61 18.1245 10.61H17.8547V14.4801V18.3507H10.6641H3.47306V14.4371C3.47306 11.3585 3.44857 10.5235 3.3751 10.5409C3.31755 10.5492 2.90082 10.5757 2.45143 10.6017ZM17.8551 26.8737V31.2221H10.6641H3.47306V26.8737V22.5253H10.6641H17.8551V26.8737Z" fill="white"/>
<path d="M4.8947 10.6017C4.87837 10.619 4.86205 12.0452 4.86205 13.7585V16.8719H10.6229H16.3837V13.7151V10.5669H10.6559C7.5098 10.5669 4.91102 10.5843 4.8947 10.6017ZM15.24 13.48V15.1325H14.5045H13.769V13.48V11.8276H14.5045H15.24V13.48Z" fill="white"/>
</svg>
