<svg width="40" height="40" viewBox="0 0 40 40" fill="none" xmlns="http://www.w3.org/2000/svg">
<path d="M21.3469 5.17959V6.67755L23.8449 7.23265V5.17959H21.3469ZM16.1469 5.17959V7.22857L18.1469 6.53061V5.17959H16.1469ZM18.4 0V4.97959H21.3469V2.4898H23.8449V0H18.4ZM2.75102 16.1265V21.2775H6.50204V18.7061H4.89796V16.1306H2.75102V16.1265ZM0.00408165 21.2775H2.55102V23.4816H0.00408165V21.2775ZM16.249 34.6245H18.449V36.8735H16.249V34.6245ZM27.9469 32.6775L26.698 34.2735H28.898L27.9469 32.6775ZM24.151 34.9755H26.449V37.7755H31.6V40H18.449V37.8286H24.0449L24.151 34.9755ZM34.6 24.2816L32.6449 27.9265L34.6 28.9755V24.2816ZM34.6 29.5755H40V34.9755L34.6 29.5755ZM34.7959 16.1265H37.2939V18.3755H34.7959V16.1265ZM34.7959 21.4776H37.6408V18.3796H39.9959V26.6286H37.8408V23.4816H34.7918L34.7959 21.4776ZM31.3469 4.42857H35.551V8.72653H31.3469V4.42857ZM29.249 9.32653V2.22857H37.4V10.7265H30.698L32.6449 13.4245H39.9959V0H26.3959V7.57551L29.249 9.32653ZM4.62449 4.42857H8.74694V8.52653H4.62449V4.42857ZM10.6 10.0776V2.4898H2.4V10.8776H10.249L8.4 13.4286H0V0H13.6449V8.52653L10.6 10.0776ZM4.62449 31.0776H9V35.4776H4.62449V31.0776ZM10.751 30.5755V37.4898H2.55102V28.9755H9.55102L8.05306 26.3755H0.00408165V40H13.298V32.8776L10.751 30.5755ZM20.4 10.0286C20.4 10.0286 30.8 9.6449 31.351 20.2367C31.351 20.2367 31.8041 30.7265 20.4 31.0776C20.4 31.0776 10.102 30.6449 10.351 20.2367H7.6C7.6 20.2367 7.30204 32.8286 20.449 33.4776C20.449 33.4776 33.5469 33.7959 33.7959 20.2367C33.7959 20.2367 34.2449 7.97959 20.298 7.67755L20.4 10.0286ZM20.4 10.0286C20.4 10.0286 11.2 9.94694 10.351 20.2367H7.6C7.6 20.2367 8.04898 8.22857 20.298 7.67755L20.4 10.0286ZM28.5306 31.0776L36.6939 39.2775C36.6939 39.2775 37.849 40.3755 39.249 39.2775C39.249 39.2775 40.6 38.2327 39.249 36.5265L31.1469 28.6531C31.151 28.649 29.3429 30.5755 28.5306 31.0776Z" fill="white"/>
</svg>
